<svg width="714" height="155" viewBox="0 0 714 155" fill="none" xmlns="http://www.w3.org/2000/svg">
<g clip-path="url(#clip0_24_2)">
<path d="M46.1084 46.1119L46.956 41.9865L33.168 32.8913C33.0928 32.8401 32.9834 32.8501 32.9151 32.9186C32.8502 32.9836 32.8399 33.093 32.8913 33.1715L41.9865 46.9562L46.1084 46.1119Z" fill="black"/>
<path d="M70.0137 65.044L65.8916 65.8917L65.0439 70.0138L78.832 79.109C78.9072 79.1637 79.0166 79.1501 79.0849 79.0816C79.1498 79.0167 79.1601 78.9108 79.1054 78.832L70.0137 65.044Z" fill="black"/>
<path d="M70.0137 46.956L79.1089 33.1713C79.1601 33.0927 79.1501 32.9834 79.0851 32.9184C79.0166 32.8499 78.9073 32.8399 78.8322 32.8911L65.0442 41.9862L65.8918 46.1117L70.0137 46.956Z" fill="black"/>
<path d="M41.9864 65.044L32.8912 78.832C32.84 78.9106 32.8501 79.0167 32.915 79.0816C32.9835 79.1501 33.0929 79.1637 33.1679 79.109L46.956 70.0138L46.1083 65.8917L41.9864 65.044Z" fill="black"/>
<path d="M95.4912 55.8018L62.8768 49.1232L56.1982 16.5121C56.1776 16.4163 56.0956 16.3516 56 16.3516C55.9044 16.3516 55.8222 16.4165 55.8018 16.5121L49.1232 49.1229L16.5088 55.8018C16.42 55.8224 16.3516 55.9044 16.3516 56C16.3516 56.0956 16.42 56.1778 16.5088 56.1982L49.1232 62.8803L55.8018 95.4879C55.8224 95.5837 55.9044 95.6484 56 95.6484C56.0956 95.6484 56.1778 95.5835 56.1982 95.4879L62.8768 62.8803L95.4912 56.1982C95.58 56.1776 95.6484 56.0956 95.6484 56C95.6484 55.9044 95.5802 55.8224 95.4912 55.8018ZM56 60.8877C53.2998 60.8877 51.1123 58.6968 51.1123 56C51.1123 53.3032 53.2998 51.1123 56 51.1123C58.7002 51.1123 60.8877 53.3032 60.8877 56C60.8877 58.6968 58.7002 60.8877 56 60.8877Z" fill="#24944F"/>
<path d="M107.591 34.2138C103.325 24.1581 96.2294 15.6236 87.2983 9.58059C82.831 6.5625 77.9023 4.16653 72.6386 2.52591C67.3748 0.885281 61.7763 0 56 0C48.2958 0 40.9165 1.57237 34.2138 4.40912C24.1581 8.67475 15.6236 15.7706 9.58059 24.7017C6.559 29.169 4.16303 34.0977 2.52241 39.3614C0.881781 44.6252 0 50.2237 0 56C0 63.7074 1.57237 71.087 4.40912 77.7862C8.67475 87.8419 15.7671 96.3764 24.7017 102.419C29.169 105.441 34.0977 107.837 39.3614 109.478C44.6252 111.118 50.2237 112 56 112C63.7042 112 71.087 110.428 77.7862 107.587C87.8419 103.329 96.3764 96.2294 102.419 87.2983C105.441 82.831 107.837 77.9023 109.478 72.6386C111.118 67.3748 112 61.7763 112 56C112 48.2958 110.428 40.9165 107.591 34.2138ZM95.006 72.4542C91.793 80.0387 86.4062 86.5259 79.6423 91.0958C76.2619 93.3859 72.5364 95.1906 68.5716 96.4278C64.6032 97.6651 60.389 98.3351 56.0002 98.3351C50.1522 98.3351 44.6082 97.1456 39.5461 95.006C31.9581 91.793 25.4776 86.4062 20.9044 79.6423C18.6143 76.2619 16.8096 72.5397 15.5724 68.5716C14.3351 64.6034 13.6684 60.3888 13.6651 56C13.6686 50.1519 14.8547 44.6044 16.9943 39.5458C20.2073 31.9613 25.594 25.4774 32.3579 20.9042C35.7383 18.6176 39.4605 16.8094 43.4287 15.5722C47.3968 14.3349 51.6112 13.6684 56 13.6684C61.8516 13.6684 67.3956 14.8544 72.4542 16.9975C80.0422 20.207 86.5226 25.5938 91.0958 32.3579C93.3859 35.7383 95.1906 39.4638 96.4278 43.4287C97.6651 47.4003 98.3351 51.6112 98.3351 56C98.3316 61.8481 97.1456 67.3956 95.006 72.4542Z" fill="black"/>
</g>
<path d="M183.478 102.555C177.257 102.555 171.296 101.734 165.593 100.093C159.891 98.3648 154.793 95.7728 150.3 92.3168C145.894 88.7744 142.395 84.368 139.803 79.0976C137.211 73.8272 135.915 67.6064 135.915 60.4352C135.915 52.1408 137.384 45.056 140.321 39.1808C143.345 33.2192 147.32 28.3808 152.244 24.6656C157.169 20.864 162.569 18.0992 168.444 16.3712C174.32 14.5568 180.108 13.6496 185.811 13.6496C188.489 13.6496 191.297 13.8656 194.235 14.2976C197.172 14.7296 199.894 15.248 202.4 15.8528C204.905 16.4576 206.849 17.0192 208.232 17.5376L206.936 26.3504C202.27 24.3632 197.648 22.6352 193.068 21.1664C188.576 19.6976 183.521 18.9632 177.905 18.9632C168.747 21.0368 161.748 25.5728 156.91 32.5712C152.072 39.4832 149.652 48.08 149.652 58.3616C149.652 67.0016 151.208 74.3024 154.318 80.264C157.515 86.1392 161.835 90.5888 167.278 93.6128C172.721 96.5504 178.942 98.0192 185.94 98.0192C190.52 98.0192 195.056 97.4576 199.548 96.3344C204.041 95.1248 207.627 93.3536 210.305 91.0208V98.1488C207.713 99.1856 204.819 100.05 201.622 100.741C198.425 101.346 195.228 101.778 192.032 102.037C188.921 102.382 186.07 102.555 183.478 102.555ZM257.329 102.555C250.157 102.555 243.634 100.957 237.759 97.76C231.884 94.4768 227.218 89.7248 223.762 83.504C220.306 77.1968 218.578 69.5072 218.578 60.4352C218.578 53.3504 219.529 47.1728 221.429 41.9024C223.33 36.632 225.879 32.2256 229.076 28.6832C232.359 25.0544 235.988 22.16 239.962 20C244.023 17.7536 248.17 16.1552 252.404 15.2048C256.724 14.168 260.871 13.6496 264.845 13.6496C272.103 13.6496 278.669 15.248 284.545 18.4448C290.42 21.6416 295.085 26.3504 298.541 32.5712C301.997 38.792 303.725 46.4384 303.725 55.5104C303.725 62.5952 302.775 68.7728 300.874 74.0432C298.973 79.3136 296.381 83.7632 293.098 87.392C289.815 91.0208 286.143 93.9584 282.082 96.2048C278.108 98.4512 273.961 100.05 269.641 101C265.407 102.037 261.303 102.555 257.329 102.555ZM261.087 98.2784C266.271 98.2784 270.677 97.0256 274.306 94.52C278.021 92.0144 281.002 88.7744 283.249 84.8C285.581 80.8256 287.266 76.5056 288.303 71.84C289.426 67.1744 289.988 62.7248 289.988 58.4912C289.988 53.1344 289.426 48.08 288.303 43.328C287.266 38.4896 285.495 34.256 282.989 30.6272C280.57 26.9984 277.287 24.1472 273.14 22.0736C269.079 20 263.981 18.9632 257.847 18.9632C252.058 20.9504 247.263 23.9744 243.461 28.0352C239.66 32.096 236.852 36.7616 235.037 42.032C233.223 47.3024 232.316 52.7888 232.316 58.4912C232.316 63.7616 232.834 68.816 233.871 73.6544C234.994 78.4064 236.679 82.64 238.925 86.3552C241.172 90.0704 244.109 93.008 247.738 95.168C251.453 97.2416 255.903 98.2784 261.087 98.2784ZM318.708 101L323.504 15.2048H335.556L365.494 80.6528L394.136 15.2048H407.355L412.15 101H398.931L395.432 27.2576H394.913L362.254 101H360.44L328.428 30.2384H327.91L324.411 101H318.708ZM434.917 101V15.2048H462.781C468.484 15.2048 473.581 16.112 478.074 17.9264C482.567 19.6544 486.109 22.16 488.701 25.4432C491.293 28.7264 492.589 32.744 492.589 37.496C492.589 43.112 491.164 47.8208 488.312 51.6224C485.461 55.3376 481.487 58.1456 476.389 60.0464C471.292 61.8608 465.373 62.768 458.634 62.768H447.488V101H434.917ZM447.488 59.0096H459.023C463.429 59.0096 466.972 58.232 469.65 56.6768C472.328 55.1216 474.359 53.1776 475.741 50.8448C477.124 48.512 478.031 46.1792 478.463 43.8464C478.981 41.5136 479.24 39.6128 479.24 38.144C479.24 37.6256 479.111 36.5888 478.852 35.0336C478.679 33.4784 478.117 31.7072 477.167 29.72C476.303 27.7328 474.877 25.832 472.89 24.0176C470.989 22.2032 468.311 20.8208 464.855 19.8704C462.176 19.8704 459.152 20.0864 455.783 20.5184C452.413 20.9504 449.648 21.4688 447.488 22.0736V59.0096ZM489.476 101L527.967 13.1312H529.911L568.402 101H554.276L544.556 77.672H506.064L496.474 101H489.476ZM508.008 72.7472H542.482L525.375 30.7568L508.008 72.7472ZM603.641 102.555C598.544 102.555 593.705 101.95 589.126 100.741C584.633 99.5312 581.134 98.4512 578.628 97.5008V91.4096C580.097 92.1008 582.084 93.008 584.59 94.1312C587.096 95.168 589.86 96.0752 592.884 96.8528C595.908 97.6304 598.846 98.0192 601.697 98.0192C607.4 98.0192 611.979 96.5504 615.435 93.6128C618.977 90.5888 620.748 86.3552 620.748 80.912C620.748 77.5424 619.755 74.648 617.768 72.2288C615.78 69.8096 613.188 67.6064 609.992 65.6192C606.881 63.632 603.555 61.7312 600.012 59.9168C596.47 58.016 593.1 55.9856 589.904 53.8256C586.793 51.5792 584.244 48.9872 582.257 46.0496C580.27 43.0256 579.276 39.4832 579.276 35.4224C579.276 32.0528 580.184 28.7264 581.998 25.4432C583.812 22.0736 586.707 19.2656 590.681 17.0192C594.656 14.7728 599.883 13.6496 606.363 13.6496C609.905 13.6496 613.75 14.0816 617.897 14.9456C622.044 15.8096 625.63 16.7168 628.654 17.6672L627.358 26.48C622.347 24.32 617.379 22.5488 612.454 21.1664C607.529 19.6976 602.518 18.9632 597.42 18.9632C594.915 20.1728 593.144 21.7712 592.107 23.7584C591.156 25.6592 590.681 27.776 590.681 30.1088C590.681 33.5648 591.718 36.632 593.792 39.3104C595.865 41.9024 598.544 44.3216 601.827 46.568C605.196 48.728 608.696 50.8448 612.324 52.9184C616.04 54.992 619.539 57.2384 622.822 59.6576C626.192 62.0768 628.913 64.7984 630.987 67.8224C633.06 70.8464 634.097 74.3888 634.097 78.4496C634.097 82.9424 632.974 87.0464 630.728 90.7616C628.481 94.3904 625.112 97.2848 620.619 99.4448C616.126 101.518 610.467 102.555 603.641 102.555ZM675.655 102.555C670.558 102.555 665.719 101.95 661.14 100.741C656.647 99.5312 653.148 98.4512 650.642 97.5008V91.4096C652.111 92.1008 654.098 93.008 656.604 94.1312C659.11 95.168 661.874 96.0752 664.898 96.8528C667.922 97.6304 670.86 98.0192 673.711 98.0192C679.414 98.0192 683.993 96.5504 687.449 93.6128C690.991 90.5888 692.762 86.3552 692.762 80.912C692.762 77.5424 691.769 74.648 689.782 72.2288C687.794 69.8096 685.202 67.6064 682.006 65.6192C678.895 63.632 675.569 61.7312 672.026 59.9168C668.484 58.016 665.114 55.9856 661.918 53.8256C658.807 51.5792 656.258 48.9872 654.271 46.0496C652.284 43.0256 651.29 39.4832 651.29 35.4224C651.29 32.0528 652.198 28.7264 654.012 25.4432C655.826 22.0736 658.721 19.2656 662.695 17.0192C666.67 14.7728 671.897 13.6496 678.377 13.6496C681.919 13.6496 685.764 14.0816 689.911 14.9456C694.058 15.8096 697.644 16.7168 700.668 17.6672L699.372 26.48C694.361 24.32 689.393 22.5488 684.468 21.1664C679.543 19.6976 674.532 18.9632 669.434 18.9632C666.929 20.1728 665.158 21.7712 664.121 23.7584C663.17 25.6592 662.695 27.776 662.695 30.1088C662.695 33.5648 663.732 36.632 665.806 39.3104C667.879 41.9024 670.558 44.3216 673.841 46.568C677.21 48.728 680.71 50.8448 684.338 52.9184C688.054 54.992 691.553 57.2384 694.836 59.6576C698.206 62.0768 700.927 64.7984 703.001 67.8224C705.074 70.8464 706.111 74.3888 706.111 78.4496C706.111 82.9424 704.988 87.0464 702.742 90.7616C700.495 94.3904 697.126 97.2848 692.633 99.4448C688.14 101.518 682.481 102.555 675.655 102.555Z" fill="black"/>
<path d="M584.364 154V120.081H594.048C596.336 120.081 598.642 120.405 600.965 121.054C603.287 121.669 605.422 122.694 607.369 124.129C609.316 125.529 610.871 127.374 612.032 129.662C613.227 131.917 613.825 134.684 613.825 137.963C613.825 140.798 613.313 143.24 612.288 145.29C611.263 147.305 609.863 148.962 608.087 150.26C606.345 151.524 604.346 152.463 602.092 153.078C599.837 153.693 597.481 154 595.021 154H584.364ZM593.996 152.258C596.763 152.258 599.223 151.711 601.375 150.618C603.561 149.525 605.269 147.869 606.498 145.648C607.762 143.394 608.394 140.559 608.394 137.143C608.394 134.513 607.899 132.156 606.908 130.072C605.952 127.989 604.62 126.247 602.912 124.846C601.238 123.446 599.325 122.472 597.173 121.926C595.978 121.926 594.611 122.028 593.074 122.233C591.571 122.438 590.342 122.694 589.385 123.001V151.797C589.863 151.933 590.546 152.053 591.435 152.155C592.323 152.224 593.177 152.258 593.996 152.258ZM633.091 154.615C630.256 154.615 627.677 153.983 625.354 152.719C623.031 151.421 621.187 149.542 619.82 147.083C618.454 144.589 617.771 141.549 617.771 137.963C617.771 135.162 618.147 132.719 618.898 130.636C619.65 128.552 620.657 126.81 621.921 125.41C623.219 123.975 624.654 122.831 626.225 121.977C627.83 121.089 629.47 120.457 631.144 120.081C632.852 119.671 634.491 119.466 636.063 119.466C638.932 119.466 641.528 120.098 643.851 121.362C646.173 122.626 648.018 124.487 649.384 126.947C650.751 129.406 651.434 132.429 651.434 136.016C651.434 138.817 651.058 141.259 650.307 143.343C649.555 145.426 648.53 147.185 647.232 148.62C645.934 150.055 644.483 151.216 642.877 152.104C641.306 152.992 639.666 153.624 637.958 154C636.285 154.41 634.662 154.615 633.091 154.615ZM634.577 152.924C636.626 152.924 638.368 152.429 639.803 151.438C641.272 150.448 642.45 149.167 643.338 147.595C644.261 146.024 644.927 144.316 645.337 142.472C645.781 140.627 646.003 138.868 646.003 137.194C646.003 135.076 645.781 133.078 645.337 131.199C644.927 129.287 644.226 127.613 643.236 126.178C642.279 124.744 640.981 123.616 639.342 122.797C637.736 121.977 635.721 121.567 633.296 121.567C631.007 122.352 629.111 123.548 627.608 125.153C626.106 126.759 624.995 128.603 624.278 130.687C623.561 132.771 623.202 134.94 623.202 137.194C623.202 139.278 623.407 141.276 623.817 143.189C624.261 145.068 624.927 146.741 625.815 148.21C626.703 149.679 627.865 150.84 629.299 151.694C630.768 152.514 632.527 152.924 634.577 152.924ZM673.395 154.615C670.935 154.615 668.578 154.29 666.324 153.641C664.069 152.958 662.054 151.933 660.278 150.567C658.536 149.167 657.152 147.425 656.128 145.341C655.103 143.257 654.59 140.798 654.59 137.963C654.59 134.684 655.171 131.883 656.333 129.56C657.528 127.203 659.099 125.29 661.046 123.821C662.993 122.318 665.128 121.225 667.451 120.542C669.774 119.825 672.062 119.466 674.317 119.466C675.376 119.466 676.486 119.552 677.647 119.722C678.809 119.893 679.885 120.098 680.875 120.337C681.866 120.576 682.634 120.798 683.181 121.003L682.668 124.487C680.824 123.702 678.996 123.019 677.186 122.438C675.41 121.857 673.412 121.567 671.191 121.567C667.571 122.387 664.804 124.18 662.891 126.947C660.978 129.679 660.022 133.078 660.022 137.143C660.022 140.559 660.636 143.445 661.866 145.802C663.13 148.125 664.838 149.884 666.99 151.079C669.142 152.241 671.601 152.822 674.368 152.822C676.178 152.822 677.972 152.6 679.748 152.155C681.524 151.677 682.942 150.977 684.001 150.055V152.873C682.976 153.283 681.832 153.624 680.568 153.898C679.304 154.137 678.04 154.307 676.776 154.41C675.546 154.547 674.419 154.615 673.395 154.615ZM698.953 154.615C696.938 154.615 695.025 154.376 693.215 153.898C691.439 153.419 690.055 152.992 689.065 152.617V150.208C689.645 150.482 690.431 150.84 691.422 151.284C692.412 151.694 693.505 152.053 694.701 152.36C695.896 152.668 697.058 152.822 698.185 152.822C700.439 152.822 702.25 152.241 703.616 151.079C705.017 149.884 705.717 148.21 705.717 146.058C705.717 144.726 705.324 143.582 704.538 142.625C703.753 141.669 702.728 140.798 701.464 140.012C700.234 139.227 698.919 138.475 697.519 137.758C696.118 137.006 694.786 136.204 693.522 135.35C692.293 134.462 691.285 133.437 690.499 132.275C689.714 131.08 689.321 129.679 689.321 128.074C689.321 126.742 689.68 125.427 690.397 124.129C691.114 122.797 692.258 121.686 693.83 120.798C695.401 119.91 697.468 119.466 700.029 119.466C701.43 119.466 702.95 119.637 704.59 119.978C706.229 120.32 707.647 120.679 708.842 121.054L708.33 124.539C706.349 123.685 704.385 122.984 702.438 122.438C700.491 121.857 698.509 121.567 696.494 121.567C695.504 122.045 694.803 122.677 694.393 123.463C694.018 124.214 693.83 125.051 693.83 125.973C693.83 127.34 694.24 128.552 695.059 129.611C695.879 130.636 696.938 131.592 698.236 132.48C699.568 133.334 700.952 134.171 702.386 134.991C703.855 135.811 705.239 136.699 706.537 137.655C707.869 138.612 708.945 139.688 709.765 140.883C710.584 142.079 710.994 143.479 710.994 145.085C710.994 146.861 710.55 148.483 709.662 149.952C708.774 151.387 707.442 152.531 705.666 153.385C703.889 154.205 701.652 154.615 698.953 154.615Z" fill="black"/>
<defs>
<clipPath id="clip0_24_2">
<rect width="112" height="112" fill="white"/>
</clipPath>
</defs>
</svg>
